<svg id="Layer_1" data-name="Layer 1" xmlns="http://www.w3.org/2000/svg" viewBox="0 0 2000 352.64"><defs><style>.cls-1{fill:#f89c44;}.cls-2{fill:#333;}</style></defs><title>BoG_LogoType_RGB_Color</title><rect class="cls-1" x="237.26" y="1.83" width="41.26" height="41.18"/><path class="cls-2" d="M204.78,174.6c0,69.54-53.11,103.16-96.28,103.16-34,0-62.27-20.63-67.24-40.5v36.68H0V3.83H41.26V110c5-16.81,33.24-38.21,67.24-38.21C151.67,71.83,204.78,106.22,204.78,174.6Zm-40.12,0c0-43.93-31.32-66.09-62.27-66.09s-63,21.78-63,66.09c0,44.7,32.09,66.48,63,66.48S164.66,218.92,164.66,174.6Z"/><rect class="cls-2" x="237.26" y="75.27" width="41.26" height="198.67"/><path class="cls-2" d="M377.85,109.66V220.83c0,10.7,3.82,19.1,16,19.1,10.31,0,17.57-1.91,26-5.34v34.76c-8.41,4.2-19.49,6.88-36.68,6.88-24.83,0-46.61-9.93-46.61-53.87V109.66H309.08V75.27h27.51V28.66h41.26V75.27h42v34.39Z"/><path class="cls-2" d="M517.3,105.07c-15.28,0-27.12,8.79-27.12,22.16,0,10.7,6.87,19.1,22.92,24.83l21.78,7.64c31.33,11.08,56.92,23.69,56.92,58.46,0,39.73-35.53,60-74.12,60-39,0-67.24-20.25-74.88-54.25L475.66,214c5.73,17.95,21,30.94,42,30.94,18,0,34-9.93,34-26,0-12.22-9.17-20.25-26-26.36l-22.54-8c-36.68-13-52.73-32.86-52.73-57.69,0-33.62,29.8-55,65.33-55,34.39,0,58.07,18.72,68.77,47l-34.38,9.56C543.28,113.09,532.2,105.07,517.3,105.07Z"/><path class="cls-2" d="M889,175c0,69.15-57.69,102.77-102.77,102.77S683.41,244.14,683.41,175c0-68.78,57.69-103.16,102.77-103.16S889,106.21,889,175Zm-165.43,0c0,43.93,33.62,66.09,62.66,66.09s62.66-22.16,62.66-66.09c0-44.33-33.62-66.48-62.66-66.48S723.52,130.66,723.52,175Z"/><path class="cls-2" d="M973,63.8V75.26h51.19v34.39H973V273.94H931.74V109.65H908.05V75.26h23.69V63.8C931.74,8.4,970.33,0,995.16,0c17.58,0,34,4.58,46.23,12.23l-14.51,28.65c-9.55-4.2-16.82-6.5-27.51-6.5C979.89,34.38,973,46.61,973,63.8Z"/><path class="cls-2" d="M1307.71,75.26V273.93c0,60-55.4,78.71-95.9,78.71-27.13,0-46.61-6.49-56.93-13.37V304.88c10.32,6.88,29.42,13,56.93,13,34.77,0,54.63-18.72,54.63-43.94V237.26c-5,19.86-33.23,40.49-67.24,40.49-43.17,0-96.28-33.62-96.28-103.15,0-68.39,53.11-102.78,96.28-102.78,34,0,62.28,21.4,67.24,38.21V75.26Zm-39.35,99.34c0-44.32-32.1-66.1-63-66.1S1143,130.66,1143,174.6c0,44.31,31.33,66.48,62.27,66.48S1268.36,219.3,1268.36,174.6Z"/><path class="cls-2" d="M1545.73,175c0,69.15-57.69,102.77-102.78,102.77S1340.18,244.13,1340.18,175c0-68.77,57.69-103.16,102.77-103.16S1545.73,106.21,1545.73,175Zm-165.44,0c0,43.93,33.62,66.1,62.66,66.1s62.66-22.17,62.66-66.1c0-44.32-33.62-66.48-62.66-66.48S1380.29,130.66,1380.29,175Z"/><path class="cls-2" d="M1772.29,175c0,69.15-57.69,102.77-102.77,102.77S1566.74,244.13,1566.74,175c0-68.77,57.69-103.16,102.78-103.16S1772.29,106.21,1772.29,175Zm-165.43,0c0,43.93,33.62,66.1,62.66,66.1s62.66-22.17,62.66-66.1c0-44.32-33.62-66.48-62.66-66.48S1606.86,130.66,1606.86,175Z"/><path class="cls-2" d="M2000,3.81V273.93h-41.26V237.26c-5,19.86-33.24,40.49-67.25,40.49-43.17,0-96.28-33.62-96.28-103.15,0-68.39,53.11-102.78,96.28-102.78,34,0,62.28,21.4,67.25,38.21V3.81ZM1960.65,174.6c0-44.32-32.1-66.1-63.05-66.1s-62.27,22.16-62.27,66.1c0,44.31,31.33,66.48,62.27,66.48S1960.65,219.3,1960.65,174.6Z"/></svg>